<svg width="58" height="58" viewBox="0 0 58 58" fill="none" xmlns="http://www.w3.org/2000/svg">
<path d="M55.5833 36.2501H28.2919L34.6864 42.6446L32.9778 44.3532L23.6664 35.0417L32.9802 25.7279L34.6888 27.4365L28.2919 33.8334H55.5833V36.2501ZM24.1667 24.1667H14.5V26.5834H24.1667V24.1667ZM14.5 36.2501H19.3333V33.8334H14.5V36.2501ZM7.25 9.66675H14.5V7.25008H21.75C21.75 5.9682 22.2592 4.73882 23.1657 3.8324C24.0721 2.92597 25.3015 2.41675 26.5833 2.41675C27.8652 2.41675 29.0946 2.92597 30.001 3.8324C30.9074 4.73882 31.4167 5.9682 31.4167 7.25008H38.6667V9.66675H45.9167V31.4167H43.5V12.0834H38.6667V16.9167H14.5V12.0834H9.66667V50.7501H43.5V38.6667H45.9167V53.1667H7.25V9.66675ZM16.9167 14.5001H36.25V9.66675H29V6.31966C29 5.92591 28.8437 5.54824 28.5655 5.26958C28.2873 4.99092 27.9099 4.83405 27.5162 4.83341H25.6529C25.2587 4.83341 24.8807 4.99 24.602 5.26873C24.3233 5.54745 24.1667 5.92549 24.1667 6.31966V9.66675H16.9167V14.5001ZM14.5 45.9167H24.1667V43.5001H14.5V45.9167Z" fill="white"/>
</svg>
