<svg width="87" height="87" viewBox="0 0 87 87" fill="none" xmlns="http://www.w3.org/2000/svg">
<g style="mix-blend-mode:luminosity">
<path d="M45.8366 86.2046C43.3885 86.2035 40.9445 86.004 38.5286 85.608C26.7119 83.6689 16.148 77.1189 9.15701 67.3968C2.16601 57.6747 -0.680417 45.5753 1.24288 33.756C2.31913 27.0275 4.91296 20.6322 8.8278 15.055C12.7426 9.47773 17.8757 4.86486 23.838 1.566C24.8439 1.00396 25.9901 0.742648 27.1402 0.813153C28.2903 0.883659 29.396 1.28301 30.3257 1.96371C31.276 2.61394 32.0169 3.52631 32.4582 4.58986C32.8995 5.6534 33.0222 6.82228 32.8115 7.95428L29.58 7.70571L32.6375 8.25257C30.9125 17.4024 32.5244 26.8675 37.1808 34.9306C41.8371 42.9938 49.2295 49.1207 58.0166 52.2C64.7836 54.5485 72.0636 55.004 79.0706 53.5174C80.1793 53.2998 81.3268 53.3963 82.3837 53.7959C83.4406 54.1955 84.3648 54.8824 85.0522 55.7791C85.7396 56.6758 86.1629 57.7468 86.2742 58.8711C86.3856 59.9955 86.1807 61.1287 85.6826 62.1428C81.8488 69.3912 76.1151 75.4599 69.0959 79.6986C62.0766 83.9373 54.0364 86.1863 45.8366 86.2046ZM26.5226 7.18371C21.7681 9.87958 17.6343 13.5458 14.3897 17.9442C11.1452 22.3425 8.86256 27.3744 7.69032 32.7128C6.51808 38.0512 6.48244 43.5765 7.58571 48.9296C8.68899 54.2826 10.9065 59.3436 14.094 63.7834C17.9359 69.1538 23.0809 73.4586 29.0448 76.2929C35.0087 79.1272 41.5956 80.3978 48.1859 79.9851C54.7761 79.5724 61.1531 77.4901 66.7168 73.934C72.2806 70.3779 76.8483 65.4649 79.9903 59.6571C71.9951 61.2644 63.7161 60.7153 56.0032 58.0663C45.8261 54.4979 37.2607 47.4076 31.8543 38.0762C26.4478 28.7448 24.5567 17.7875 26.5226 7.18371Z" fill="black"/>
</g>
</svg>
