<svg width="34" height="34" viewBox="0 0 34 34" fill="none" xmlns="http://www.w3.org/2000/svg">
<path fill-rule="evenodd" clip-rule="evenodd" d="M17.0451 33.9995C21.4081 33.9577 25.7272 32.146 28.8333 29.0696C32.5226 25.415 34.4221 20.0089 33.7596 14.8476C32.6238 6.00203 25.3698 0 16.9361 0C10.5293 0 4.30151 4.01763 1.56977 9.84344C-0.521488 14.3034 -0.525027 19.6883 1.56977 24.1567C4.28169 29.9415 10.4076 33.9379 16.8271 33.9995C16.9 34.0002 16.9722 34.0002 17.0451 33.9995ZM16.8455 31.1665C10.329 31.1035 4.24914 26.052 3.03967 19.5758C2.1876 15.0097 3.79692 10.0692 7.14789 6.8265C11.0615 3.04029 17.2114 1.77138 22.3246 3.91784C26.9006 5.83855 30.3245 10.2971 30.9557 15.2092C31.4964 19.4194 29.989 23.8319 27.0273 26.8722C24.4286 29.5381 20.7853 31.1297 17.0267 31.1665C16.9666 31.1665 16.9057 31.1665 16.8455 31.1665ZM8.08276 23.8843L14.9715 16.9955L8.07569 10.0996L10.0601 8.11594L16.9559 15.0118L24.0882 7.87957L26.0754 9.86609L18.9432 16.999L26.0896 24.1454L24.1059 26.1298L16.9588 18.9827L10.07 25.8715L8.08276 23.8843Z" fill="#3D3A4B"/>
</svg>
